# xmcd
#
# Track frame offsets:
#	150
#	15908
#	26156
#	41248
#	55023
#	65570
#	70014
#	84269
#	108850
#	125282
#	139480
#	152586
#	167988
#	181693
#	195783
#	209329
#	220596
#	233790
#	247718
#	260525
#	273425
#	286415
#	298211
#	310968
#	340041
#
# Disc length: 4753 seconds
#
# Revision: 2
# Processed by: cddbd v1.5.2PL0 Copyright (c) Steve Scherf et al.
# Submitted via: audiograbber 1.83.01
#
DISCID=60128f19
DTITLE=Various Artist - Legends Of Acoustic Guitar - Laid Back Licks and Playful Picks -
DTITLE=CD2
DYEAR=2013
DGENRE=Blues
TTITLE0=John Lee Hooker - Tupelo (Backwater Blues)
TTITLE1=Chet Atkins - Main Street Breakdown
TTITLE2=Lightnin' Hopkins - Back To New Orleans
TTITLE3=Blind Lemon Jefferson - Black Snake Moan
TTITLE4=Al Viola - Nocturne
TTITLE5=Maybelle Carter - Coal Miner's Blues
TTITLE6=Scrapper Blackwell - E Blues
TTITLE7=Pink Anderson - John Henry
TTITLE8=Josh White - St. James Infirmary
TTITLE9=Curley Weaver - No No Blues
TTITLE10=Roy Harvey and Leonard Copeland - Lonesome Weary Blues
TTITLE11=Ishman Bracey - Trouble Hearted Blues
TTITLE12=Melvin Dupree - Augusta Rag
TTITLE13=Reverend Blind Gary Davis - You Can Go Home
TTITLE14=Big Joe Williams - Pallet On The Floor
TTITLE15=Lester Flatt and Earl Scruggs - So Happy I'll Be
TTITLE16=Sam McGee - Back Dancer's Choice
TTITLE17=Robert Lockwood Jr. - Little Boy Blue
TTITLE18=Sleepy John Estes - Special Agent Blues
TTITLE19=Floyd Council - Runaway Man Blues
TTITLE20=Kokomo Arnold - Old Original Kokomo Blues
TTITLE21=Smokey Hogg - Misery Blues
TTITLE22=Willie 'Poor Boy' Lofton - Dirty Mistreater
TTITLE23=Joaquin Rodrigo and Nick Zala - Concierto De Aranjuez: I. Allegro Con Sp
TTITLE23=irito
TTITLE24=Tommy Johnson - Canned Heat Blues
EXTD=
EXTT0=
EXTT1=
EXTT2=
EXTT3=
EXTT4=
EXTT5=
EXTT6=
EXTT7=
EXTT8=
EXTT9=
EXTT10=
EXTT11=
EXTT12=
EXTT13=
EXTT14=
EXTT15=
EXTT16=
EXTT17=
EXTT18=
EXTT19=
EXTT20=
EXTT21=
EXTT22=
EXTT23=
EXTT24=
PLAYORDER=
